<svg xmlns="http://www.w3.org/2000/svg"
    width="30px" height="30px" viewBox="0, 0, 400,400">
    <g>
        <path fill="#00BFFF" stroke="none" fill-rule="evenodd"
        d="M188.969 20.942 L 170.037 26.044 163.372 50.832 C 159.706 64.466,156.478 76.405,156.198 77.364 L 155.690 79.107 136.362 59.869 C 124.437 48.001,116.711 40.639,116.192 40.650 C 115.729 40.660,107.246 42.849,97.340 45.515 L 79.331 50.361 46.211 172.698 C 27.995 239.983,12.978 295.745,12.839 296.614 L 12.587 298.194 27.095 311.287 C 35.075 318.488,41.946 324.626,42.365 324.927 C 42.991 325.378,47.574 324.283,68.177 318.758 C 81.955 315.064,93.266 312.079,93.313 312.126 C 93.360 312.172,90.071 323.887,86.005 338.159 L 78.610 364.108 91.963 377.324 C 101.120 386.387,105.545 390.471,106.044 390.319 C 106.444 390.197,161.828 375.360,229.120 357.348 C 296.411 339.336,351.848 324.439,352.314 324.243 C 352.967 323.968,354.420 319.798,358.671 305.997 L 364.182 288.106 345.089 269.016 C 334.587 258.517,326.071 249.851,326.163 249.759 C 326.256 249.666,337.945 246.476,352.139 242.669 C 366.333 238.862,378.031 235.664,378.134 235.561 C 378.357 235.338,387.359 198.059,387.359 197.358 C 387.359 196.407,209.921 16.031,208.889 15.933 C 208.346 15.882,199.381 18.136,188.969 20.942 M287.375 112.607 C 332.181 158.277,368.782 195.702,368.710 195.774 C 368.638 195.846,351.438 200.496,330.487 206.107 L 292.394 216.310 286.386 210.314 C 283.081 207.016,280.526 204.183,280.708 204.019 C 280.890 203.855,294.601 200.094,311.176 195.661 C 327.752 191.228,341.263 187.490,341.199 187.356 C 341.136 187.221,306.495 152.784,264.221 110.829 C 221.947 68.874,187.359 34.442,187.359 34.312 C 187.359 34.002,204.571 29.379,205.324 29.487 C 205.645 29.533,242.568 66.937,287.375 112.607 M247.950 112.045 C 286.013 149.832,317.211 180.877,317.278 181.034 C 317.345 181.190,313.403 182.388,308.519 183.694 L 299.639 186.070 296.738 183.215 C 295.142 181.646,269.638 155.830,240.062 125.847 C 210.486 95.863,186.149 71.332,185.979 71.332 C 185.588 71.332,187.452 64.509,163.904 152.097 C 152.729 193.663,143.521 227.735,143.442 227.814 C 143.364 227.893,139.581 228.955,135.036 230.175 L 126.772 232.392 127.012 231.207 C 127.144 230.556,135.000 201.682,144.469 167.043 C 153.939 132.404,165.377 90.401,169.888 73.702 C 174.399 57.003,178.237 43.341,178.417 43.341 C 178.597 43.341,209.887 74.258,247.950 112.045 M132.584 73.498 L 152.074 92.777 150.002 100.339 C 148.862 104.498,147.805 107.901,147.653 107.901 C 147.037 107.901,96.509 58.500,96.968 58.347 C 98.736 57.758,111.864 54.277,112.415 54.251 C 112.788 54.234,121.863 62.895,132.584 73.498 M119.865 98.417 C 132.528 110.661,143.162 120.927,143.496 121.232 C 144.064 121.752,140.043 138.530,139.092 139.605 C 138.933 139.786,129.062 129.932,117.156 117.709 C 105.250 105.486,95.380 95.427,95.222 95.356 C 94.839 95.183,95.772 91.549,66.787 206.203 C 52.774 261.635,41.206 306.991,41.079 306.993 C 40.237 307.010,26.188 293.698,26.377 293.062 C 26.497 292.657,40.217 241.941,56.867 180.361 C 73.516 118.781,87.247 68.105,87.380 67.747 C 87.548 67.297,89.043 68.493,92.231 71.627 C 94.766 74.118,107.201 86.174,119.865 98.417 M203.612 106.903 C 203.612 107.883,174.681 219.164,174.348 219.466 C 174.179 219.619,171.196 220.498,167.720 221.420 C 164.244 222.343,160.446 223.371,159.282 223.706 C 157.720 224.155,157.211 224.175,157.344 223.783 C 157.769 222.530,191.874 95.293,191.874 94.962 C 191.874 94.760,194.515 97.231,197.743 100.451 C 200.971 103.672,203.612 106.575,203.612 106.903 M249.846 153.365 C 269.361 173.156,285.327 189.478,285.327 189.636 C 285.327 189.914,271.592 193.700,270.635 193.686 C 269.914 193.676,209.932 133.417,209.932 132.704 C 209.932 131.451,213.686 117.381,214.021 117.381 C 214.210 117.381,230.332 133.574,249.846 153.365 M107.403 125.326 C 110.408 128.453,112.865 131.145,112.864 131.308 C 112.862 131.470,104.024 166.630,93.223 209.441 C 82.422 252.253,73.651 287.345,73.730 287.425 C 73.810 287.504,108.602 278.253,151.046 266.867 L 228.217 246.165 234.860 252.745 C 238.514 256.364,241.414 259.414,241.304 259.524 C 241.040 259.788,53.540 310.051,53.355 309.907 C 53.101 309.709,101.343 119.640,101.646 119.639 C 101.807 119.639,104.397 122.198,107.403 125.326 M134.914 155.530 C 134.696 156.275,129.839 174.052,124.121 195.034 C 118.403 216.016,113.517 233.839,113.263 234.641 C 112.887 235.831,112.455 236.195,110.916 236.616 C 109.878 236.900,106.585 237.787,103.598 238.587 L 98.167 240.043 105.525 210.879 C 109.571 194.839,115.163 172.622,117.950 161.509 L 123.019 141.302 129.164 147.739 C 135.055 153.909,135.293 154.232,134.914 155.530 M315.196 256.546 C 331.813 273.121,345.304 286.682,345.176 286.682 C 345.048 286.682,302.472 298.059,250.564 311.964 C 198.656 325.869,156.009 337.246,155.792 337.246 C 155.481 337.246,158.704 323.863,159.992 319.806 C 160.233 319.046,171.318 315.961,237.699 298.180 C 280.283 286.773,315.124 277.332,315.124 277.200 C 315.124 277.067,289.450 252.098,258.071 221.713 L 201.017 166.468 203.545 156.632 L 206.073 146.797 245.528 186.604 C 267.228 208.498,298.578 239.972,315.196 256.546 M250.240 231.327 C 272.780 253.150,291.165 271.057,291.096 271.120 C 291.027 271.184,287.387 272.185,283.007 273.345 L 275.043 275.454 234.474 234.738 C 212.161 212.344,193.935 193.894,193.970 193.738 C 194.006 193.582,194.798 190.457,195.730 186.793 L 197.425 180.133 203.342 185.890 C 206.596 189.057,227.700 209.503,250.240 231.327 M371.307 212.077 C 368.240 224.939,368.087 225.454,367.222 225.821 C 366.751 226.020,354.989 229.227,341.084 232.948 L 315.801 239.712 309.138 233.063 C 305.362 229.295,302.721 226.329,303.043 226.219 C 304.206 225.820,371.352 207.769,371.844 207.723 C 372.184 207.691,372.005 209.149,371.307 212.077 M193.355 214.548 C 188.648 215.951,188.139 216.004,188.423 215.057 C 188.561 214.597,189.016 212.834,189.435 211.137 L 190.196 208.054 193.081 210.912 L 195.966 213.770 193.355 214.548 M212.170 230.003 C 216.310 234.151,218.027 236.155,217.582 236.321 C 215.934 236.933,90.951 270.294,90.800 270.162 C 90.534 269.929,94.429 254.456,94.878 253.964 C 95.209 253.601,204.232 224.074,205.650 223.963 C 205.901 223.944,208.836 226.662,212.170 230.003 M256.419 274.252 C 259.009 276.851,261.037 279.057,260.925 279.156 C 260.599 279.443,164.179 305.188,164.022 305.030 C 163.943 304.951,164.625 302.037,165.538 298.555 L 167.198 292.224 209.220 280.918 C 232.332 274.700,251.347 269.593,251.475 269.569 C 251.604 269.545,253.828 271.652,256.419 274.252 M153.312 296.953 C 152.614 299.179,138.166 354.566,138.262 354.647 C 138.324 354.698,185.508 342.100,243.115 326.651 C 300.722 311.203,347.900 298.592,347.955 298.628 C 348.009 298.664,346.999 302.144,345.710 306.362 L 343.366 314.031 229.900 344.428 C 167.494 361.146,116.338 374.728,116.220 374.610 C 115.991 374.380,135.752 301.118,136.152 300.718 C 136.476 300.394,151.707 296.244,152.739 296.199 C 153.321 296.173,153.488 296.393,153.312 296.953 M120.967 309.142 C 109.649 351.110,104.013 371.538,103.778 371.445 C 103.619 371.383,101.004 368.931,97.966 365.996 L 92.442 360.660 99.790 334.619 C 103.831 320.296,107.193 308.508,107.261 308.422 C 107.376 308.277,121.296 304.399,121.973 304.323 C 122.139 304.304,121.687 306.473,120.967 309.142 "
        />
    </g>
</svg>